<?xml version="1.0" encoding="UTF-8" standalone="no"?>
<!DOCTYPE svg PUBLIC "-//W3C//DTD SVG 1.1//EN" "http://www.w3.org/Graphics/SVG/1.1/DTD/svg11.dtd">
<svg version="1.1" xmlns="http://www.w3.org/2000/svg" xmlns:xlink="http://www.w3.org/1999/xlink" preserveAspectRatio="xMidYMid meet" viewBox="0 0 700 200" width="700" height="200"><defs><path d="M69.58 197.72C92.27 197.72 110.69 179.3 110.69 156.61C110.69 133.92 92.27 115.5 69.58 115.5C68.64 115.5 61.09 115.5 60.15 115.5C56.78 115.5 54.31 112.8 54.31 109.66C54.31 106.29 56.78 103.59 60.15 103.59C63.28 103.59 78.93 103.59 107.1 103.59L107.1 68.33C78.93 68.33 63.28 68.33 60.15 68.33C37.46 68.33 19.04 86.97 19.04 109.66C19.04 132.35 37.46 150.77 60.15 150.77C61.09 150.77 68.64 150.77 69.58 150.77C72.73 150.77 75.42 153.46 75.42 156.61C75.42 159.98 72.73 162.45 69.58 162.45C66.08 162.45 48.56 162.45 17.02 162.45L17.02 197.72C45.05 197.72 62.57 197.72 69.58 197.72Z" id="f4HW4mjQEb"></path><path d="M214.14 181.54C224.7 170.99 230.54 156.83 230.54 141.78C230.54 137.08 230.54 113.57 230.54 71.25L196.84 71.25C196.84 113.57 196.84 137.08 196.84 141.78C196.84 154.14 186.73 164.25 174.38 164.25C162.02 164.25 151.91 154.14 151.91 141.78C151.91 137.08 151.91 113.57 151.91 71.25L118.22 71.25C118.22 113.57 118.22 137.08 118.22 141.78C118.22 156.83 124.06 170.99 134.62 181.54C145.17 192.1 159.33 197.94 174.38 197.94C189.43 197.94 203.58 192.1 214.14 181.54Z" id="bLsESolHt"></path><path d="M369.7 108.99C366.56 101.35 361.84 94.38 356 88.54C350.16 82.7 343.42 77.99 335.78 74.84C327.69 71.47 319.38 69.9 310.85 69.9C302.08 69.9 293.77 71.47 285.91 74.84C283.89 75.74 282.09 76.41 280.52 77.54C280.52 73.27 280.52 51.93 280.52 13.51L246.82 24.75C246.82 90.25 246.82 126.64 246.82 133.92C246.82 142.46 248.4 150.99 251.77 158.86C254.91 166.49 259.63 173.23 265.47 179.07C271.31 185.14 278.27 189.63 285.91 192.78C293.77 196.15 302.08 197.94 310.85 197.94C319.38 197.94 327.69 196.15 335.78 192.78C343.19 189.63 350.16 184.91 356 179.07C361.84 173.23 366.56 166.49 369.7 158.86C373.07 150.77 374.87 142.46 374.87 133.92C374.87 125.16 373.07 116.85 369.7 108.99ZM310.85 164.25C294 164.25 280.52 150.54 280.52 133.92C280.52 117.07 294 103.59 310.85 103.59C327.47 103.59 341.17 117.07 341.17 133.92C341.17 150.54 327.47 164.25 310.85 164.25Z" id="caixfPuZt"></path><path d="M386.61 196.37L420.53 196.37L420.53 66.75L386.61 77.99L386.61 196.37Z" id="a3s4f5071I"></path><path d="M476.05 71.7C476.05 71.56 476.05 71.49 476.05 71.47C476.05 51.93 492 35.75 511.77 35.75C511.77 32.38 511.77 5.43 511.77 2.06C502.33 2.06 493.12 4.08 484.59 7.67C476.28 11.04 468.86 15.98 462.57 22.5C456.28 28.79 451.12 36.2 447.75 44.51C444.15 53.05 442.36 62.26 442.36 71.47C442.36 79.8 442.36 121.43 442.36 196.37L476.05 196.37L476.05 103.14L511.77 103.14L511.77 71.7L476.05 71.7Z" id="e3MW4fdnFu"></path><path d="M516.04 196.37L549.96 196.37L549.96 66.75L516.04 77.99L516.04 196.37Z" id="a4z7ZZyD6C"></path><path d="M643 196.37L682.98 196.37L637.38 133.47L682.53 71.25L641.87 71.25L616.94 106.07L592.45 71.25L551.12 71.25L596.72 133.25L551.34 196.37L591.11 196.37L617.16 161.78L643 196.37Z" id="b8eYmPtlT1"></path></defs><g><g><g><use xlink:href="#f4HW4mjQEb" opacity="1" fill="#ffffff" fill-opacity="1"></use><g><use xlink:href="#f4HW4mjQEb" opacity="1" fill-opacity="0" stroke="#ffffff" stroke-width="0" stroke-opacity="1"></use></g></g><g><use xlink:href="#bLsESolHt" opacity="1" fill="#ffffff" fill-opacity="1"></use><g><use xlink:href="#bLsESolHt" opacity="1" fill-opacity="0" stroke="#ffffff" stroke-width="0" stroke-opacity="1"></use></g></g><g><use xlink:href="#caixfPuZt" opacity="1" fill="#ffffff" fill-opacity="1"></use><g><use xlink:href="#caixfPuZt" opacity="1" fill-opacity="0" stroke="#ffffff" stroke-width="0" stroke-opacity="1"></use></g></g><g><use xlink:href="#a3s4f5071I" opacity="1" fill="#ffffff" fill-opacity="1"></use><g><use xlink:href="#a3s4f5071I" opacity="1" fill-opacity="0" stroke="#ffffff" stroke-width="0" stroke-opacity="1"></use></g></g><g><use xlink:href="#e3MW4fdnFu" opacity="1" fill="#ffffff" fill-opacity="1"></use><g><use xlink:href="#e3MW4fdnFu" opacity="1" fill-opacity="0" stroke="#ffffff" stroke-width="0" stroke-opacity="1"></use></g></g><g><use xlink:href="#a4z7ZZyD6C" opacity="1" fill="#ffffff" fill-opacity="1"></use><g><use xlink:href="#a4z7ZZyD6C" opacity="1" fill-opacity="0" stroke="#ffffff" stroke-width="0" stroke-opacity="1"></use></g></g><g><use xlink:href="#b8eYmPtlT1" opacity="1" fill="#ffffff" fill-opacity="1"></use><g><use xlink:href="#b8eYmPtlT1" opacity="1" fill-opacity="0" stroke="#ffffff" stroke-width="0" stroke-opacity="1"></use></g></g></g></g></svg>