<?xml version="1.0" encoding="UTF-8" standalone="no"?>
<!DOCTYPE svg PUBLIC "-//W3C//DTD SVG 1.1//EN" "http://www.w3.org/Graphics/SVG/1.1/DTD/svg11.dtd">
<svg version="1.1" xmlns="http://www.w3.org/2000/svg" xmlns:xlink="http://www.w3.org/1999/xlink" preserveAspectRatio="xMidYMid meet" viewBox="0 0 700 210" width="700" height="210"><defs><path d="M101.57 164.27C101.57 140.71 82.45 121.59 58.9 121.59C57.92 121.59 50.08 121.59 49.11 121.59C45.61 121.59 43.04 118.79 43.04 115.53C43.04 112.03 45.61 109.23 49.11 109.23C52.36 109.23 68.6 109.23 97.85 109.23C97.85 105.57 97.85 76.28 97.85 72.62C68.6 72.62 52.36 72.62 49.11 72.62C25.55 72.62 6.43 91.97 6.43 115.53C6.43 139.08 25.55 158.2 49.11 158.2C50.08 158.2 57.92 158.2 58.9 158.2C62.17 158.2 64.96 161 64.96 164.27C64.96 167.77 62.17 170.33 58.9 170.33C55.26 170.33 37.08 170.33 4.33 170.33C4.33 173.99 4.33 203.28 4.33 206.94C33.43 206.94 51.62 206.94 58.9 206.94C82.45 206.94 101.57 187.82 101.57 164.27Z" id="cDMkxJoz"></path><path d="M101.57 164.27C101.57 140.71 82.45 121.59 58.9 121.59C57.92 121.59 50.08 121.59 49.11 121.59C45.61 121.59 43.04 118.79 43.04 115.53C43.04 112.03 45.61 109.23 49.11 109.23C52.36 109.23 68.6 109.23 97.85 109.23C97.85 105.57 97.85 76.28 97.85 72.62C68.6 72.62 52.36 72.62 49.11 72.62C25.55 72.62 6.43 91.97 6.43 115.53C6.43 139.08 25.55 158.2 49.11 158.2C50.08 158.2 57.92 158.2 58.9 158.2C62.17 158.2 64.96 161 64.96 164.27C64.96 167.77 62.17 170.33 58.9 170.33C55.26 170.33 37.08 170.33 4.33 170.33C4.33 173.99 4.33 203.28 4.33 206.94C33.43 206.94 51.62 206.94 58.9 206.94C82.45 206.94 101.57 187.82 101.57 164.27Z" id="aBY7Y3Y4f"></path><path d="M225.99 148.87C225.99 143.99 225.99 119.59 225.99 75.65C222.49 75.65 194.5 75.65 191 75.65C191 119.59 191 143.99 191 148.87C191 161.7 180.51 172.2 167.69 172.2C154.86 172.2 144.36 161.7 144.36 148.87C144.36 143.99 144.36 119.59 144.36 75.65C140.87 75.65 112.89 75.65 109.39 75.65C109.39 119.59 109.39 143.99 109.39 148.87C109.39 164.5 115.45 179.19 126.41 190.15C137.37 201.11 152.07 207.17 167.69 207.17C183.31 207.17 198 201.11 208.96 190.15C219.93 179.19 225.99 164.5 225.99 148.87Z" id="b6NamWVvRd"></path><path d="M225.99 148.87C225.99 143.99 225.99 119.59 225.99 75.65C222.49 75.65 194.5 75.65 191 75.65C191 119.59 191 143.99 191 148.87C191 161.7 180.51 172.2 167.69 172.2C154.86 172.2 144.36 161.7 144.36 148.87C144.36 143.99 144.36 119.59 144.36 75.65C140.87 75.65 112.89 75.65 109.39 75.65C109.39 119.59 109.39 143.99 109.39 148.87C109.39 164.5 115.45 179.19 126.41 190.15C137.37 201.11 152.07 207.17 167.69 207.17C183.31 207.17 198 201.11 208.96 190.15C219.93 179.19 225.99 164.5 225.99 148.87Z" id="f1tC9HcCmp"></path><path d="M356.23 93.6C350.17 87.54 343.17 82.65 335.24 79.38C326.84 75.88 318.21 74.25 309.36 74.25C300.25 74.25 291.63 75.88 283.47 79.38C281.37 80.32 279.5 81.01 277.87 82.18C277.87 77.75 277.87 55.6 277.87 15.71C274.37 16.88 246.39 26.22 242.89 27.38C242.89 95.38 242.89 133.15 242.89 140.71C242.89 149.58 244.53 158.43 248.03 166.6C251.29 174.52 256.19 181.52 262.25 187.58C268.31 193.88 275.54 198.54 283.47 201.81C291.63 205.31 300.25 207.17 309.36 207.17C318.21 207.17 326.84 205.31 335.24 201.81C342.93 198.54 350.17 193.64 356.23 187.58C362.29 181.52 367.19 174.52 370.45 166.6C373.95 158.2 375.82 149.58 375.82 140.71C375.82 131.62 373.95 122.99 370.45 114.83C367.19 106.9 362.29 99.67 356.23 93.6ZM277.87 140.71C277.87 123.22 291.87 109.23 309.36 109.23C326.61 109.23 340.83 123.22 340.83 140.71C340.83 157.97 326.61 172.2 309.36 172.2C291.87 172.2 277.87 157.97 277.87 140.71Z" id="b1T4weiht"></path><path d="M356.23 93.6C350.17 87.54 343.17 82.65 335.24 79.38C326.84 75.88 318.21 74.25 309.36 74.25C300.25 74.25 291.63 75.88 283.47 79.38C281.37 80.32 279.5 81.01 277.87 82.18C277.87 77.75 277.87 55.6 277.87 15.71C274.37 16.88 246.39 26.22 242.89 27.38C242.89 95.38 242.89 133.15 242.89 140.71C242.89 149.58 244.53 158.43 248.03 166.6C251.29 174.52 256.19 181.52 262.25 187.58C268.31 193.88 275.54 198.54 283.47 201.81C291.63 205.31 300.25 207.17 309.36 207.17C318.21 207.17 326.84 205.31 335.24 201.81C342.93 198.54 350.17 193.64 356.23 187.58C362.29 181.52 367.19 174.52 370.45 166.6C373.95 158.2 375.82 149.58 375.82 140.71C375.82 131.62 373.95 122.99 370.45 114.83C367.19 106.9 362.29 99.67 356.23 93.6ZM277.87 140.71C277.87 123.22 291.87 109.23 309.36 109.23C326.61 109.23 340.83 123.22 340.83 140.71C340.83 157.97 326.61 172.2 309.36 172.2C291.87 172.2 277.87 157.97 277.87 140.71Z" id="a1ygXNwCle"></path><path d="M423.22 205.54L423.22 70.98L388 82.65L388 205.54L423.22 205.54Z" id="g7lJE1We1V"></path><path d="M423.22 205.54L423.22 70.98L388 82.65L388 205.54L423.22 205.54Z" id="a38YU1CgD7"></path><path d="M480.85 75.88C480.85 55.6 497.41 38.8 517.93 38.8C517.93 35.3 517.93 7.33 517.93 3.83C508.13 3.83 498.57 5.93 489.72 9.65C481.09 13.15 473.39 18.28 466.86 25.05C460.33 31.58 454.97 39.27 451.47 47.9C447.74 56.76 445.88 66.32 445.88 75.88C445.88 84.53 445.88 127.75 445.88 205.54C448.21 205.54 459.87 205.54 480.85 205.54L480.85 108.76L517.93 108.76L517.93 76.12L480.85 76.12C480.85 75.98 480.85 75.9 480.85 75.88Z" id="d6MCsCnu0"></path><path d="M480.85 75.88C480.85 55.6 497.41 38.8 517.93 38.8C517.93 35.3 517.93 7.33 517.93 3.83C508.13 3.83 498.57 5.93 489.72 9.65C481.09 13.15 473.39 18.28 466.86 25.05C460.33 31.58 454.97 39.27 451.47 47.9C447.74 56.76 445.88 66.32 445.88 75.88C445.88 84.53 445.88 127.75 445.88 205.54C448.21 205.54 459.87 205.54 480.85 205.54L480.85 108.76L517.93 108.76L517.93 76.12L480.85 76.12C480.85 75.98 480.85 75.9 480.85 75.88Z" id="bDlFgOGEb"></path><path d="M557.58 205.54L557.58 70.98L522.37 82.65L522.37 205.54L557.58 205.54Z" id="b1zVwaD1UA"></path><path d="M557.58 205.54L557.58 70.98L522.37 82.65L522.37 205.54L557.58 205.54Z" id="f272cuv3UL"></path><path d="M695.67 205.54L648.33 140.25L695.2 75.65L652.99 75.65L627.11 111.8L601.69 75.65L558.78 75.65L606.12 140.02L559.01 205.54L600.3 205.54L627.34 169.63L654.16 205.54L695.67 205.54Z" id="a14MNQT7Gr"></path><path d="M695.67 205.54L648.33 140.25L695.2 75.65L652.99 75.65L627.11 111.8L601.69 75.65L558.78 75.65L606.12 140.02L559.01 205.54L600.3 205.54L627.34 169.63L654.16 205.54L695.67 205.54Z" id="d19rSM8aS"></path></defs><g><g><g><use xlink:href="#cDMkxJoz" opacity="1" fill="#417fe5" fill-opacity="1"></use><g><use xlink:href="#cDMkxJoz" opacity="1" fill-opacity="0" stroke="#000000" stroke-width="1" stroke-opacity="0"></use></g></g><g><use xlink:href="#aBY7Y3Y4f" opacity="1" fill="#417fe5" fill-opacity="1"></use><g><use xlink:href="#aBY7Y3Y4f" opacity="1" fill-opacity="0" stroke="#ffffff" stroke-width="0" stroke-opacity="1"></use></g></g><g><use xlink:href="#b6NamWVvRd" opacity="1" fill="#417fe5" fill-opacity="1"></use><g><use xlink:href="#b6NamWVvRd" opacity="1" fill-opacity="0" stroke="#000000" stroke-width="1" stroke-opacity="0"></use></g></g><g><use xlink:href="#f1tC9HcCmp" opacity="1" fill="#417fe5" fill-opacity="1"></use><g><use xlink:href="#f1tC9HcCmp" opacity="1" fill-opacity="0" stroke="#ffffff" stroke-width="0" stroke-opacity="1"></use></g></g><g><use xlink:href="#b1T4weiht" opacity="1" fill="#417fe5" fill-opacity="1"></use><g><use xlink:href="#b1T4weiht" opacity="1" fill-opacity="0" stroke="#000000" stroke-width="1" stroke-opacity="0"></use></g></g><g><use xlink:href="#a1ygXNwCle" opacity="1" fill="#417fe5" fill-opacity="1"></use><g><use xlink:href="#a1ygXNwCle" opacity="1" fill-opacity="0" stroke="#ffffff" stroke-width="0" stroke-opacity="1"></use></g></g><g><use xlink:href="#g7lJE1We1V" opacity="1" fill="#417fe5" fill-opacity="1"></use><g><use xlink:href="#g7lJE1We1V" opacity="1" fill-opacity="0" stroke="#000000" stroke-width="1" stroke-opacity="0"></use></g></g><g><use xlink:href="#a38YU1CgD7" opacity="1" fill="#417fe5" fill-opacity="1"></use><g><use xlink:href="#a38YU1CgD7" opacity="1" fill-opacity="0" stroke="#ffffff" stroke-width="0" stroke-opacity="1"></use></g></g><g><use xlink:href="#d6MCsCnu0" opacity="1" fill="#417fe5" fill-opacity="1"></use><g><use xlink:href="#d6MCsCnu0" opacity="1" fill-opacity="0" stroke="#000000" stroke-width="1" stroke-opacity="0"></use></g></g><g><use xlink:href="#bDlFgOGEb" opacity="1" fill="#417fe5" fill-opacity="1"></use><g><use xlink:href="#bDlFgOGEb" opacity="1" fill-opacity="0" stroke="#ffffff" stroke-width="0" stroke-opacity="1"></use></g></g><g><use xlink:href="#b1zVwaD1UA" opacity="1" fill="#417fe5" fill-opacity="1"></use><g><use xlink:href="#b1zVwaD1UA" opacity="1" fill-opacity="0" stroke="#000000" stroke-width="1" stroke-opacity="0"></use></g></g><g><use xlink:href="#f272cuv3UL" opacity="1" fill="#417fe5" fill-opacity="1"></use><g><use xlink:href="#f272cuv3UL" opacity="1" fill-opacity="0" stroke="#ffffff" stroke-width="0" stroke-opacity="1"></use></g></g><g><use xlink:href="#a14MNQT7Gr" opacity="1" fill="#417fe5" fill-opacity="1"></use><g><use xlink:href="#a14MNQT7Gr" opacity="1" fill-opacity="0" stroke="#000000" stroke-width="1" stroke-opacity="0"></use></g></g><g><use xlink:href="#d19rSM8aS" opacity="1" fill="#417fe5" fill-opacity="1"></use><g><use xlink:href="#d19rSM8aS" opacity="1" fill-opacity="0" stroke="#ffffff" stroke-width="0" stroke-opacity="1"></use></g></g></g></g></svg>